<svg version="1.1" xmlns="http://www.w3.org/2000/svg" viewBox="0 0 1228.1409223035203 761.8845850505832" width="1228.1409223035203" height="761.8845850505832">
  <!-- svg-source:excalidraw -->
  
  <defs>
    <style class="style-fonts">
      @font-face {
        font-family: "Virgil";
        src: url("https://excalidraw.com/Virgil.woff2");
      }
      @font-face {
        font-family: "Cascadia";
        src: url("https://excalidraw.com/Cascadia.woff2");
      }
    </style>
  </defs>
  <rect x="0" y="0" width="1228.1409223035203" height="761.8845850505832" fill="#ffffff"></rect><g stroke-linecap="round" transform="translate(719.3915193252624 379.4808896830855) rotate(0 217.67786643678096 167.56222407611608)"><path d="M7.86 8.16 C7.86 8.16, 7.86 8.16, 7.86 8.16 M7.86 8.16 C7.86 8.16, 7.86 8.16, 7.86 8.16 M2.75 26.24 C7.23 20.06, 12.12 12.61, 21.12 5.11 M2.75 26.24 C8.98 19.42, 13.74 15.31, 21.12 5.11 M2.88 38.28 C10.17 29.52, 20.5 20.16, 34.37 2.05 M2.88 38.28 C9.95 31.08, 15.04 23.55, 34.37 2.05 M2.36 51.07 C19.51 29.01, 31.74 14.02, 45 2.02 M2.36 51.07 C17.31 35.59, 28.19 18.06, 45 2.02 M2.49 63.11 C18.43 44.28, 36.78 16.98, 55.63 1.98 M2.49 63.11 C20.36 43.64, 33.79 25.38, 55.63 1.98 M2.62 75.16 C24.74 52.47, 43.81 29.44, 66.26 1.95 M2.62 75.16 C23.89 50.71, 46.38 25.82, 66.26 1.95 M2.76 87.2 C12.95 72.11, 28.77 48.2, 76.89 1.91 M2.76 87.2 C23.2 63.21, 44.32 37.72, 76.89 1.91 M2.23 99.99 C25.98 73.74, 49.18 48.77, 87.52 1.88 M2.23 99.99 C27.56 68.49, 53.56 37.71, 87.52 1.88 M2.37 112.03 C22.03 87.26, 46.85 67.04, 98.15 1.85 M2.37 112.03 C31.88 78.26, 59.13 46.33, 98.15 1.85 M2.5 124.07 C40.54 75.39, 84.86 28.64, 108.78 1.81 M2.5 124.07 C34.78 88.69, 62.29 52.37, 108.78 1.81 M2.63 136.11 C29.65 105.13, 57.05 65.32, 119.41 1.78 M2.63 136.11 C38 98.36, 69.46 59.52, 119.41 1.78 M2.11 148.91 C31.53 117.77, 54.81 85.47, 130.04 1.74 M2.11 148.91 C35.69 113.84, 66.29 74.98, 130.04 1.74 M2.24 160.95 C40.63 121.44, 74.92 74.24, 140.67 1.71 M2.24 160.95 C53.1 107.06, 104.56 50.18, 140.67 1.71 M2.38 172.99 C47.14 126.79, 82.33 82.49, 150.65 2.43 M2.38 172.99 C62.92 105.84, 120.99 41.01, 150.65 2.43 M2.51 185.03 C43.33 143.94, 78.51 99.94, 161.28 2.39 M2.51 185.03 C33.88 145.87, 65.21 108.69, 161.28 2.39 M2.64 197.07 C66.47 123.02, 128.52 55.41, 171.91 2.36 M2.64 197.07 C48.64 144.04, 94 91.34, 171.91 2.36 M2.12 209.87 C46.9 163.49, 91.3 113.8, 182.54 2.32 M2.12 209.87 C61.46 141.21, 123.9 73.85, 182.54 2.32 M2.25 221.91 C74.42 139.72, 148.8 61.21, 193.17 2.29 M2.25 221.91 C54.14 164.75, 104.08 107.91, 193.17 2.29 M2.39 233.95 C80.08 141.49, 156.07 51.93, 203.8 2.26 M2.39 233.95 C83.6 141.46, 166.31 48.77, 203.8 2.26 M2.52 245.99 C50.08 186.74, 100.09 127.67, 214.43 2.22 M2.52 245.99 C54.33 184.65, 109.61 124.01, 214.43 2.22 M2 258.79 C71.24 174.73, 146.91 91.33, 225.06 2.19 M2 258.79 C57.1 190.74, 116.16 123.81, 225.06 2.19 M2.13 270.83 C85.09 170.03, 170.54 72.27, 235.69 2.15 M2.13 270.83 C55.21 212.18, 106.83 154.32, 235.69 2.15 M2.26 282.87 C68.13 208.6, 138.33 131.31, 246.32 2.12 M2.26 282.87 C85.42 182.6, 168.78 87.52, 246.32 2.12 M2.4 294.91 C59.37 229.48, 122.44 161.55, 256.95 2.08 M2.4 294.91 C55.99 230.12, 112.85 165.86, 256.95 2.08 M3.18 306.2 C55.91 242.17, 109.07 182.14, 267.58 2.05 M3.18 306.2 C77.11 219.99, 151.87 134.8, 267.58 2.05 M3.32 318.24 C103.06 200.68, 206.74 79.88, 278.21 2.01 M3.32 318.24 C108.32 192.22, 216.03 68.18, 278.21 2.01 M7.39 325.75 C82.52 244.53, 156.45 156.29, 288.84 1.98 M7.39 325.75 C89.76 233.66, 168.03 142.79, 288.84 1.98 M12.77 331.75 C126.43 206.48, 236.82 75.03, 299.47 1.94 M12.77 331.75 C115.37 214, 216.31 96.47, 299.47 1.94 M20.12 335.49 C126.65 213.61, 234.37 90.48, 310.1 1.91 M20.12 335.49 C112.48 224.81, 208.86 115.33, 310.1 1.91 M30.09 336.21 C130.26 215.49, 235.62 92.79, 320.73 1.88 M30.09 336.21 C96.2 262.43, 161.08 188.26, 320.73 1.88 M37.44 339.95 C149.71 207.57, 264.52 74.03, 331.36 1.84 M37.44 339.95 C157.84 207.29, 274.16 72.53, 331.36 1.84 M48.07 339.92 C111.41 268.41, 171.86 198.99, 341.99 1.81 M48.07 339.92 C159.15 209.33, 270.24 80.91, 341.99 1.81 M58.7 339.88 C169.74 213.65, 282.32 85.51, 352.62 1.77 M58.7 339.88 C132.84 254.42, 207.58 168.41, 352.62 1.77 M69.33 339.85 C171.74 225.43, 271.31 110.91, 363.25 1.74 M69.33 339.85 C163.04 235.29, 254.42 130.93, 363.25 1.74 M79.96 339.81 C178.93 227.34, 275.97 114.55, 373.88 1.7 M79.96 339.81 C152.67 258.38, 223.54 179.3, 373.88 1.7 M90.59 339.78 C153.68 264.01, 217.51 190.81, 383.85 2.42 M90.59 339.78 C197.81 212.68, 304.61 88.52, 383.85 2.42 M101.22 339.74 C163.96 263.79, 234.04 185.82, 394.48 2.39 M101.22 339.74 C182.36 244.56, 263.67 152.08, 394.48 2.39 M111.85 339.71 C223.06 208.07, 335.89 77.96, 405.77 1.6 M111.85 339.71 C173.11 268.29, 232.16 198.94, 405.77 1.6 M122.48 339.68 C185.02 267.77, 250.04 195.29, 415.09 3.07 M122.48 339.68 C208.91 242.58, 292.16 147.6, 415.09 3.07 M133.11 339.64 C200.55 263.81, 265.53 189.46, 422.44 6.81 M133.11 339.64 C235.2 223.2, 335.02 107.29, 422.44 6.81 M143.74 339.61 C255.96 213.91, 367.96 85.66, 429.79 10.55 M143.74 339.61 C248.42 219.91, 351.24 102.11, 429.79 10.55 M154.37 339.57 C212.17 271.77, 271.67 200.55, 433.85 18.07 M154.37 339.57 C210.66 268.23, 270.96 199.62, 433.85 18.07 M165 339.54 C226.7 266.02, 289.34 194.45, 435.3 28.6 M165 339.54 C269.4 219.24, 371.88 99.82, 435.3 28.6 M174.98 340.26 C243.42 256, 313.87 175.56, 439.37 36.11 M174.98 340.26 C250.71 250.44, 329.6 159.86, 439.37 36.11 M185.61 340.22 C279.87 238.1, 370.05 133.82, 439.5 48.15 M185.61 340.22 C239.96 277, 294.99 213.96, 439.5 48.15 M196.24 340.19 C290.38 228.15, 385.65 119.67, 439.64 60.19 M196.24 340.19 C293.1 233.97, 387.76 125.65, 439.64 60.19 M206.87 340.15 C302.09 236.71, 390.06 131.6, 439.77 72.23 M206.87 340.15 C276.35 257.27, 347.97 174.38, 439.77 72.23 M217.5 340.12 C268.13 276.59, 319.95 217.63, 439.9 84.27 M217.5 340.12 C290.88 250.31, 365.48 164.28, 439.9 84.27 M228.13 340.08 C291.89 266.61, 351.07 197.77, 439.38 97.07 M228.13 340.08 C289.17 263.38, 353.58 189.4, 439.38 97.07 M238.76 340.05 C302.08 262.74, 368.77 189.26, 439.51 109.11 M238.76 340.05 C302.5 266.24, 366.61 192.24, 439.51 109.11 M249.39 340.02 C322.17 252.76, 398.99 166.72, 439.65 121.15 M249.39 340.02 C288.76 290.69, 328.42 244.94, 439.65 121.15 M260.02 339.98 C304.99 278.51, 357.59 225.42, 439.78 133.19 M260.02 339.98 C324.97 268.74, 385.74 193.11, 439.78 133.19 M270.65 339.95 C340.11 262.05, 401.68 185.13, 439.91 145.23 M270.65 339.95 C312.07 290.34, 354.53 242.16, 439.91 145.23 M281.28 339.91 C327.22 281.63, 379.38 224.7, 439.39 158.03 M281.28 339.91 C339.06 274.42, 398.1 205.12, 439.39 158.03 M291.91 339.88 C343.59 279.77, 397.5 218.34, 439.52 170.07 M291.91 339.88 C345.52 274.89, 403.99 210.82, 439.52 170.07 M302.54 339.84 C355.11 278.79, 404.54 222.07, 439.65 182.11 M302.54 339.84 C353.76 282.01, 402.98 225.32, 439.65 182.11 M313.17 339.81 C357.81 296.67, 394.84 250.69, 439.79 194.15 M313.17 339.81 C360.82 280.69, 412.65 223, 439.79 194.15 M323.8 339.77 C350.74 307.29, 381.47 277.96, 439.92 206.19 M323.8 339.77 C353.29 308, 377.54 275.99, 439.92 206.19 M334.43 339.74 C361.55 310.59, 394.18 277.88, 439.4 218.99 M334.43 339.74 C359.67 308.4, 385.72 279.63, 439.4 218.99 M345.06 339.71 C376.2 300.41, 414.16 256.88, 439.53 231.03 M345.06 339.71 C378.14 301.94, 410.65 264.98, 439.53 231.03 M355.69 339.67 C384.11 303.22, 419.26 266.05, 439.66 243.07 M355.69 339.67 C380.59 314.38, 405.16 285.68, 439.66 243.07 M366.32 339.64 C382.92 314.25, 408 289.82, 439.8 255.11 M366.32 339.64 C393.63 309.49, 417.76 279.35, 439.8 255.11 M376.95 339.6 C399.65 315.74, 425.04 284.64, 439.93 267.15 M376.95 339.6 C387.25 324.89, 403.54 308.35, 439.93 267.15 M387.58 339.57 C404 317.37, 423.37 294.01, 439.41 279.95 M387.58 339.57 C401.27 328.01, 411.74 314.25, 439.41 279.95 M398.21 339.53 C411.91 326.65, 422.34 308.37, 439.54 291.99 M398.21 339.53 C415.05 324.39, 426.78 304.18, 439.54 291.99 M408.84 339.5 C414.55 331.96, 427.8 323.42, 438.36 305.54 M408.84 339.5 C420.29 327.31, 429.26 316.05, 438.36 305.54" stroke="#ffc9c9" stroke-width="1" fill="none"></path><path d="M32 0 M32 0 C146.15 3.34, 261.91 4.42, 403.36 0 M32 0 C107.77 -2.92, 184.03 -3.01, 403.36 0 M403.36 0 C425.29 -1.82, 432.93 11.81, 435.36 32 M403.36 0 C428.08 -2.27, 439.93 9.76, 435.36 32 M435.36 32 C431.44 115.78, 433.58 200.71, 435.36 303.12 M435.36 32 C437.64 94.64, 435.68 156.15, 435.36 303.12 M435.36 303.12 C432.61 323.05, 422.05 331.17, 403.36 335.12 M435.36 303.12 C437.86 325.02, 423.26 337.86, 403.36 335.12 M403.36 335.12 C285.76 340.41, 167.22 340.86, 32 335.12 M403.36 335.12 C280.31 335.88, 154.87 336.78, 32 335.12 M32 335.12 C10.02 337.73, -1.56 323.45, 0 303.12 M32 335.12 C6.23 335.67, 0.07 325.4, 0 303.12 M0 303.12 C6.82 205.99, 1.31 103.36, 0 32 M0 303.12 C3.61 198.97, 2.01 92.4, 0 32 M0 32 C-3.01 10.4, 12.43 1.52, 32 0 M0 32 C1.04 9.82, 14.49 -3.09, 32 0" stroke="#1e1e1e" stroke-width="2" fill="none"></path></g><g stroke-linecap="round" transform="translate(716.2193743860216 10) rotate(0 250.96077395874931 125.77685694426623)"><path d="M7.86 8.16 C7.86 8.16, 7.86 8.16, 7.86 8.16 M7.86 8.16 C7.86 8.16, 7.86 8.16, 7.86 8.16 M2.75 26.24 C8.1 18.65, 19.1 5.36, 21.12 5.11 M2.75 26.24 C7.51 19.75, 14.79 11.29, 21.12 5.11 M2.88 38.28 C11.24 25.68, 25.63 16.85, 34.37 2.05 M2.88 38.28 C16.29 25.72, 25.66 11.87, 34.37 2.05 M2.36 51.07 C19.51 30.51, 37.86 10.2, 45 2.02 M2.36 51.07 C14.49 39.29, 21.21 28.04, 45 2.02 M2.49 63.11 C13.74 47.56, 26.59 38.7, 55.63 1.98 M2.49 63.11 C18.44 45.77, 29.62 32.88, 55.63 1.98 M2.62 75.16 C23.79 48.67, 44.95 29.79, 66.26 1.95 M2.62 75.16 C18.06 59.08, 31.85 42.14, 66.26 1.95 M2.76 87.2 C29.58 58.9, 56.33 30.06, 76.89 1.91 M2.76 87.2 C30.86 55.94, 55.86 21.67, 76.89 1.91 M2.23 99.99 C20.75 77.16, 41.88 54.89, 87.52 1.88 M2.23 99.99 C30.4 67.6, 56.76 36.53, 87.52 1.88 M2.37 112.03 C25.23 83.14, 48.85 56.66, 98.15 1.85 M2.37 112.03 C22.1 87.87, 43.32 66.28, 98.15 1.85 M2.5 124.07 C34.13 81.07, 70.69 42.8, 108.78 1.81 M2.5 124.07 C24.74 101.53, 45.02 73.95, 108.78 1.81 M2.63 136.11 C35.83 93.32, 72.04 58.24, 119.41 1.78 M2.63 136.11 C26.92 108.43, 51.14 81.78, 119.41 1.78 M2.11 148.91 C27.56 120.22, 54.93 88.11, 130.04 1.74 M2.11 148.91 C28.06 118.21, 53.67 86.36, 130.04 1.74 M2.24 160.95 C27.81 131.26, 61.13 94.49, 140.67 1.71 M2.24 160.95 C52.85 100.4, 105.86 42.94, 140.67 1.71 M2.38 172.99 C52.06 109.05, 104.95 49.99, 150.65 2.43 M2.38 172.99 C61.22 110.07, 118.3 43.12, 150.65 2.43 M2.51 185.03 C50.49 126.06, 105.73 67.04, 161.28 2.39 M2.51 185.03 C53.19 125.38, 105.4 65.32, 161.28 2.39 M1.99 197.83 C52.08 133.94, 104.69 73.87, 171.91 2.36 M1.99 197.83 C47.36 149.4, 91.81 98, 171.91 2.36 M2.12 209.87 C39.86 162.44, 83.93 111.57, 182.54 2.32 M2.12 209.87 C50.15 153.98, 99.13 100.4, 182.54 2.32 M2.25 221.91 C56.13 153.85, 113.24 94.22, 193.17 2.29 M2.25 221.91 C52.11 168.99, 99.31 116.72, 193.17 2.29 M2.39 233.95 C46.09 180.85, 93.43 124.32, 203.8 2.26 M2.39 233.95 C75.67 149.92, 146.6 64.68, 203.8 2.26 M7.11 240.71 C85.14 147.64, 167.75 50.76, 214.43 2.22 M7.11 240.71 C53.11 186.45, 101.43 131.52, 214.43 2.22 M12.49 246.71 C59.31 190.4, 104.47 134.59, 225.06 2.19 M12.49 246.71 C91.78 153.04, 173.59 60.1, 225.06 2.19 M18.53 251.96 C98.71 162.04, 177.4 75.38, 235.69 2.15 M18.53 251.96 C67.61 198.33, 114.26 145, 235.69 2.15 M27.19 254.19 C86.83 186.79, 145.5 118.32, 246.32 2.12 M27.19 254.19 C83.37 187.44, 142.95 121.22, 246.32 2.12 M36.51 255.67 C83.89 206.47, 127.23 155.02, 256.95 2.08 M36.51 255.67 C91.2 192.45, 143.82 133.34, 256.95 2.08 M47.14 255.63 C134.44 154.94, 221.09 53.36, 267.58 2.05 M47.14 255.63 C123.96 163.77, 204.15 73.19, 267.58 2.05 M57.77 255.6 C141.79 151.73, 232.09 50.37, 278.21 2.01 M57.77 255.6 C114.83 187.47, 173.86 122.22, 278.21 2.01 M68.4 255.56 C144.73 163.74, 224.81 73.46, 288.84 1.98 M68.4 255.56 C150.57 163.04, 233.21 70.87, 288.84 1.98 M79.03 255.53 C143.26 181.27, 207.26 109.17, 299.47 1.94 M79.03 255.53 C147.68 176.68, 217.91 95.03, 299.47 1.94 M89.66 255.49 C162.93 166.01, 241.05 79.74, 310.1 1.91 M89.66 255.49 C171.67 158.4, 259.38 58.84, 310.1 1.91 M100.29 255.46 C169.17 174.69, 230.59 103.81, 320.73 1.88 M100.29 255.46 C172.13 169.99, 243.19 88.66, 320.73 1.88 M110.92 255.42 C164.08 193.77, 218.53 131.28, 331.36 1.84 M110.92 255.42 C178.51 177.64, 248.22 98.16, 331.36 1.84 M121.55 255.39 C186.84 184.39, 245.9 112.3, 341.99 1.81 M121.55 255.39 C183.53 186.65, 244.48 118.47, 341.99 1.81 M132.18 255.35 C212.71 165.67, 294.92 72.93, 352.62 1.77 M132.18 255.35 C179.18 201.25, 226.75 149.09, 352.62 1.77 M142.81 255.32 C186.26 203.64, 231.45 155.72, 363.25 1.74 M142.81 255.32 C205.54 185.09, 264.84 119, 363.25 1.74 M153.44 255.29 C227.34 170.75, 303.17 83.52, 373.88 1.7 M153.44 255.29 C225.72 172.11, 299.88 86.17, 373.88 1.7 M164.07 255.25 C217.15 188.8, 270.16 126.84, 383.85 2.42 M164.07 255.25 C225.2 190.5, 283.66 122.38, 383.85 2.42 M174.7 255.22 C258.79 156.34, 346.44 59.75, 394.48 2.39 M174.7 255.22 C246.03 178.64, 313.8 100.67, 394.48 2.39 M185.33 255.18 C250.89 179.03, 317.61 104.34, 405.11 2.35 M185.33 255.18 C256.88 175.34, 328.09 92.81, 405.11 2.35 M195.31 255.9 C261.67 183.66, 323.45 107.65, 415.74 2.32 M195.31 255.9 C277.11 163.04, 360.2 68.27, 415.74 2.32 M205.94 255.87 C271 177.36, 336.9 106.28, 426.37 2.29 M205.94 255.87 C291.28 158.52, 374.65 58.37, 426.37 2.29 M216.57 255.83 C303.08 161.17, 387.47 63.13, 437 2.25 M216.57 255.83 C291.78 173.1, 364.28 89.21, 437 2.25 M227.2 255.8 C284.01 193.46, 336.18 133.23, 447.63 2.22 M227.2 255.8 C286.95 186.13, 345.58 119.1, 447.63 2.22 M237.83 255.76 C284.95 200.67, 324.8 151.57, 458.26 2.18 M237.83 255.76 C321.16 165.83, 401.83 73.18, 458.26 2.18 M248.46 255.73 C335.05 151.79, 424.59 50.75, 470.2 0.64 M248.46 255.73 C315.09 183, 379.62 106.86, 470.2 0.64 M259.09 255.7 C301.54 206.19, 345.54 154.1, 479.52 2.11 M259.09 255.7 C318.24 189.66, 374.68 125.53, 479.52 2.11 M269.72 255.66 C336.71 179.19, 405.93 102.86, 488.18 4.34 M269.72 255.66 C320.75 197.85, 369.47 138.9, 488.18 4.34 M280.35 255.63 C328.44 201.99, 381.11 142.56, 494.88 8.84 M280.35 255.63 C357.96 169.86, 434.59 81.44, 494.88 8.84 M290.98 255.59 C367.92 166.97, 445.14 74.03, 500.26 14.84 M290.98 255.59 C369.43 163.07, 447.08 73.34, 500.26 14.84 M301.61 255.56 C358.95 184.17, 424.91 116.79, 502.36 24.62 M301.61 255.56 C345.57 202.67, 392.15 150.39, 502.36 24.62 M312.24 255.52 C363.11 203.3, 412.85 146.97, 504.46 34.39 M312.24 255.52 C364.03 195.36, 416.35 132.66, 504.46 34.39 M322.87 255.49 C391.81 177.42, 459.29 99.18, 504.6 46.43 M322.87 255.49 C387.88 177.86, 457.05 98.32, 504.6 46.43 M333.5 255.45 C383.4 201.3, 431.61 143.88, 504.73 58.47 M333.5 255.45 C398 174.98, 466.06 98.11, 504.73 58.47 M344.13 255.42 C380.35 216.13, 412.63 169.58, 504.86 70.52 M344.13 255.42 C398.49 195.36, 449.15 137.13, 504.86 70.52 M354.76 255.39 C393.33 211, 435 167.89, 504.34 83.31 M354.76 255.39 C394.09 210.84, 430.88 167.97, 504.34 83.31 M365.39 255.35 C408.19 205.29, 452.99 154, 504.47 95.35 M365.39 255.35 C416.01 197.46, 467.61 135.02, 504.47 95.35 M376.02 255.32 C405.15 218.79, 438.82 177.04, 504.6 107.39 M376.02 255.32 C406.95 219.08, 441.41 183.23, 504.6 107.39 M386.65 255.28 C429.35 208.52, 464.91 164.48, 504.74 119.43 M386.65 255.28 C411.69 228.94, 435.17 199.8, 504.74 119.43 M397.28 255.25 C440.44 207.43, 478.09 164.94, 504.87 131.47 M397.28 255.25 C429.38 217.98, 462.57 179.27, 504.87 131.47 M407.91 255.21 C442.14 213.55, 473.18 180.15, 504.35 144.27 M407.91 255.21 C433.33 224.97, 457.84 194.43, 504.35 144.27 M417.88 255.93 C437.75 229.93, 461.68 210.62, 504.48 156.31 M417.88 255.93 C452.99 214.19, 487.83 175.02, 504.48 156.31 M428.51 255.9 C452.19 227.21, 470.27 201.59, 504.61 168.35 M428.51 255.9 C444.42 234.88, 463.17 211.46, 504.61 168.35 M439.14 255.86 C457.83 229.33, 475.08 206.33, 504.75 180.39 M439.14 255.86 C467.47 224.48, 492.63 196.62, 504.75 180.39 M449.77 255.83 C471.49 232.26, 490.57 208.56, 504.88 192.43 M449.77 255.83 C466.95 233.46, 487.79 213.7, 504.88 192.43 M460.4 255.79 C476.19 239.7, 482.98 229.69, 504.36 205.23 M460.4 255.79 C471.42 243.79, 478.1 233.37, 504.36 205.23 M472.34 254.25 C479.17 242.48, 494.16 233.73, 502.52 219.53 M472.34 254.25 C483.37 242.99, 496.17 229.25, 502.52 219.53 M485.6 251.2 C493.58 249.11, 494.19 240.74, 498.72 236.1 M485.6 251.2 C489.3 244.41, 493.52 239.84, 498.72 236.1" stroke="#a5d8ff" stroke-width="1" fill="none"></path><path d="M32 0 M32 0 C157.89 4.01, 287.32 4.52, 469.92 0 M32 0 C191.18 0.37, 351.6 0.96, 469.92 0 M469.92 0 C488.21 -2.56, 502.24 12.35, 501.92 32 M469.92 0 C489.66 0.89, 502.82 10.87, 501.92 32 M501.92 32 C502.44 81.93, 500.91 130.32, 501.92 219.55 M501.92 32 C503.89 73.6, 507.1 119.01, 501.92 219.55 M501.92 219.55 C498.38 243.08, 494.62 251.56, 469.92 251.55 M501.92 219.55 C503.54 238.7, 494.49 254.44, 469.92 251.55 M469.92 251.55 C329.82 250.24, 184.92 247.06, 32 251.55 M469.92 251.55 C379.43 247.7, 286.86 247.13, 32 251.55 M32 251.55 C12.07 254.27, -1.01 242.89, 0 219.55 M32 251.55 C6.08 253.31, -3.74 239.9, 0 219.55 M0 219.55 C-2.48 162.88, 0.91 102.36, 0 32 M0 219.55 C0.74 157.67, 2.73 93.12, 0 32 M0 32 C-0.37 7.68, 12.08 0.18, 32 0 M0 32 C3.76 8.16, 8.7 3.29, 32 0" stroke="#1e1e1e" stroke-width="2" fill="none"></path></g><g stroke-linecap="round" transform="translate(10 11.244252147933366) rotate(0 310.2579080496123 370.3201664513249)"><path d="M7.86 8.16 C7.86 8.16, 7.86 8.16, 7.86 8.16 M7.86 8.16 C7.86 8.16, 7.86 8.16, 7.86 8.16 M6.68 21.71 C8.9 17.47, 18.11 6.77, 21.12 5.11 M6.68 21.71 C11.82 16.12, 17.34 8.77, 21.12 5.11 M4.85 36.01 C13.81 26.63, 20.46 17.57, 34.37 2.05 M4.85 36.01 C11.09 28.54, 21.13 18.01, 34.37 2.05 M4.98 48.06 C20.9 29.57, 34.18 12.14, 45 2.02 M4.98 48.06 C17.41 36.83, 26.82 23.83, 45 2.02 M4.46 60.85 C15.72 44.9, 35.11 24.14, 55.63 1.98 M4.46 60.85 C18.51 41.67, 35.95 24.65, 55.63 1.98 M4.59 72.89 C26.3 49.84, 47.62 23.74, 66.26 1.95 M4.59 72.89 C25.48 50.29, 47.55 24.99, 66.26 1.95 M4.72 84.93 C27.61 59.92, 51.15 27.24, 76.89 1.91 M4.72 84.93 C23.47 62.35, 41.12 42.99, 76.89 1.91 M4.86 96.97 C37.36 56.53, 73.04 19.72, 87.52 1.88 M4.86 96.97 C34.35 56.99, 70.46 19.11, 87.52 1.88 M4.99 109.01 C28.42 87.29, 48.97 61.49, 98.15 1.85 M4.99 109.01 C41.74 69.46, 73.55 30.23, 98.15 1.85 M4.47 121.81 C22.32 90.9, 46.68 72.08, 108.78 1.81 M4.47 121.81 C30.61 94.17, 51.31 67.86, 108.78 1.81 M4.6 133.85 C44.81 85.98, 80.79 43.32, 119.41 1.78 M4.6 133.85 C34.5 103.37, 59.27 74.1, 119.41 1.78 M4.73 145.89 C29.61 111.9, 58.46 87.88, 130.04 1.74 M4.73 145.89 C32.88 111.53, 61.98 77.2, 130.04 1.74 M4.87 157.93 C47.58 108.53, 87.56 63.04, 140.67 1.71 M4.87 157.93 C41.59 117.86, 77.36 77.23, 140.67 1.71 M5 169.97 C44.57 122.5, 89.8 76.75, 150.65 2.43 M5 169.97 C56.4 112.57, 105.71 56.65, 150.65 2.43 M4.48 182.77 C67.73 119.76, 123.3 53.32, 161.28 2.39 M4.48 182.77 C63.96 117.28, 123.49 48.57, 161.28 2.39 M4.61 194.81 C72.8 115.81, 139.13 43.48, 171.91 2.36 M4.61 194.81 C48.24 144.79, 92.1 92.7, 171.91 2.36 M4.74 206.85 C74.3 126.91, 139.88 51.09, 182.54 2.32 M4.74 206.85 C66.55 134.16, 126.98 67.26, 182.54 2.32 M4.88 218.89 C45.95 168.62, 90.97 116.57, 193.17 2.29 M4.88 218.89 C57.55 159.29, 108.05 98.52, 193.17 2.29 M5.01 230.93 C46.33 183.81, 84.98 136.59, 203.8 2.26 M5.01 230.93 C79.46 144.92, 153.48 61.06, 203.8 2.26 M4.49 243.73 C68.23 171.17, 136.9 92.8, 214.43 2.22 M4.49 243.73 C49.87 190.07, 97.46 138.16, 214.43 2.22 M4.62 255.77 C54.99 202.76, 102.92 145.84, 225.06 2.19 M4.62 255.77 C91.75 155.56, 178.09 57.72, 225.06 2.19 M4.75 267.81 C76.1 193.61, 139.78 116.83, 235.69 2.15 M4.75 267.81 C71.95 184.06, 139.62 104.39, 235.69 2.15 M4.89 279.85 C62.36 217.82, 113.51 156.88, 246.32 2.12 M4.89 279.85 C88.33 187.34, 168.5 96.24, 246.32 2.12 M5.02 291.89 C70.35 217.77, 136.21 143.73, 256.95 2.08 M5.02 291.89 C76.07 210.99, 146.16 128.02, 256.95 2.08 M4.5 304.69 C58.28 241.91, 113.79 177.98, 267.58 2.05 M4.5 304.69 C66.6 227.8, 134.27 150.51, 267.58 2.05 M4.63 316.73 C66.78 245.98, 131.76 172.63, 278.21 2.01 M4.63 316.73 C91 217.05, 177.86 119.04, 278.21 2.01 M4.76 328.77 C97.8 221.22, 189.65 114.77, 288.84 1.98 M4.76 328.77 C67.18 254.45, 132.42 181.62, 288.84 1.98 M4.9 340.81 C86.24 244.77, 170.45 146.13, 299.47 1.94 M4.9 340.81 C88.33 241.93, 173.03 144.64, 299.47 1.94 M5.03 352.85 C114.01 234.42, 218 113.94, 310.1 1.91 M5.03 352.85 C72.26 271.81, 140.12 195.14, 310.1 1.91 M4.51 365.65 C128.75 224.33, 252.37 84.03, 320.73 1.88 M4.51 365.65 C88.1 265.77, 173.58 166.44, 320.73 1.88 M4.64 377.69 C131.01 228.13, 255.84 84.81, 331.36 1.84 M4.64 377.69 C90.58 277.73, 177.21 178.09, 331.36 1.84 M4.77 389.73 C138.96 234.51, 273.25 82.23, 341.99 1.81 M4.77 389.73 C106.85 271.21, 207.76 154.4, 341.99 1.81 M4.91 401.77 C135.89 249.86, 267.63 96.21, 352.62 1.77 M4.91 401.77 C87.37 302.51, 170.75 203.72, 352.62 1.77 M5.04 413.81 C88.61 313.88, 176.37 213.99, 363.25 1.74 M5.04 413.81 C144.41 258.79, 280.4 102.86, 363.25 1.74 M4.52 426.6 C87.54 334.16, 170.15 238.33, 373.88 1.7 M4.52 426.6 C122.51 287.97, 239.2 152.71, 373.88 1.7 M4.65 438.65 C131.09 291.09, 260.02 141.72, 383.85 2.42 M4.65 438.65 C104.98 323.75, 206.07 207.51, 383.85 2.42 M4.78 450.69 C157.8 270.49, 313.44 90.14, 394.48 2.39 M4.78 450.69 C121.73 309.64, 241.61 171.49, 394.48 2.39 M4.92 462.73 C84.72 371.68, 164.23 277.79, 405.11 2.35 M4.92 462.73 C125.03 328.84, 242.25 193.04, 405.11 2.35 M5.05 474.77 C164.48 294.56, 323.01 113.39, 415.74 2.32 M5.05 474.77 C132.87 330.76, 256.97 186.79, 415.74 2.32 M4.53 487.56 C94.16 381.75, 188.09 275.86, 426.37 2.29 M4.53 487.56 C156.83 316.57, 308 144.56, 426.37 2.29 M4.66 499.6 C106.99 381.72, 208.69 262.76, 437 2.25 M4.66 499.6 C112.72 371.79, 225.96 242.34, 437 2.25 M4.79 511.65 C116.37 380.75, 229.59 249.74, 447.63 2.22 M4.79 511.65 C145.98 350.42, 285.47 189.36, 447.63 2.22 M4.93 523.69 C181.95 315.74, 360.82 110.41, 458.26 2.18 M4.93 523.69 C181.44 314.95, 359.95 109.25, 458.26 2.18 M5.06 535.73 C131.53 387.31, 262.83 237.61, 468.89 2.15 M5.06 535.73 C102.29 428.08, 197.21 320.45, 468.89 2.15 M4.54 548.52 C143.06 391.61, 278.23 235.83, 479.52 2.11 M4.54 548.52 C193.23 332.85, 377.38 120.81, 479.52 2.11 M4.67 560.56 C167.85 372.93, 329.8 189.06, 490.15 2.08 M4.67 560.56 C102.42 442.7, 203.11 327.35, 490.15 2.08 M4.8 572.6 C158.38 389.04, 314.23 209.98, 500.78 2.04 M4.8 572.6 C202.8 341.69, 401.21 112.9, 500.78 2.04 M4.93 584.65 C175.25 389.76, 343.38 196.64, 511.41 2.01 M4.93 584.65 C149.76 417.38, 294.32 250.08, 511.41 2.01 M5.07 596.69 C148.58 432.06, 293.35 262.45, 522.04 1.98 M5.07 596.69 C129.62 455.33, 254.22 312.81, 522.04 1.98 M4.54 609.48 C156.25 430.77, 313 250.34, 532.67 1.94 M4.54 609.48 C195.31 390.79, 389.35 167.66, 532.67 1.94 M4.68 621.52 C196.89 395.92, 390.53 173.78, 543.3 1.91 M4.68 621.52 C220 377.42, 431.06 134.62, 543.3 1.91 M4.81 633.56 C185.97 430.21, 359.15 226.41, 553.93 1.87 M4.81 633.56 C190.28 419.49, 375.16 206.27, 553.93 1.87 M4.94 645.6 C178.55 446.55, 353.03 242, 564.56 1.84 M4.94 645.6 C118.41 511.74, 232.47 380.42, 564.56 1.84 M4.42 658.4 C220.28 410.32, 437.22 159.4, 575.19 1.8 M4.42 658.4 C145.35 492.09, 289.78 326.01, 575.19 1.8 M4.55 670.44 C170.03 472.54, 341.33 280.42, 585.82 1.77 M4.55 670.44 C175.78 481.58, 342.23 288.11, 585.82 1.77 M4.69 682.48 C212.1 448.61, 416.55 210.75, 593.83 4.75 M4.69 682.48 C199.2 453.78, 397.86 226.55, 593.83 4.75 M4.82 694.52 C137.52 543.79, 269.36 389.67, 605.11 3.96 M4.82 694.52 C193.84 467.03, 388.55 243.71, 605.11 3.96 M1.67 710.34 C227.15 450.71, 450.27 196.43, 611.81 8.46 M1.67 710.34 C231.41 446.56, 456.5 186.37, 611.81 8.46 M3.12 720.87 C139.69 563.88, 277.3 405.06, 618.5 12.95 M3.12 720.87 C155.59 541.25, 313.11 361.98, 618.5 12.95 M7.84 727.63 C167.68 536.59, 328.58 349.84, 621.92 21.22 M7.84 727.63 C195.73 514.05, 386.75 295.07, 621.92 21.22 M11.26 735.89 C252.9 460.96, 492.88 186.01, 622.05 33.26 M11.26 735.89 C186.85 532.15, 365.15 328.3, 622.05 33.26 M18.61 739.63 C236.02 479.99, 459.23 223.92, 622.18 45.3 M18.61 739.63 C184.69 553.57, 348.97 364.11, 622.18 45.3 M28.58 740.35 C153.56 586.15, 285.37 435.85, 622.32 57.34 M28.58 740.35 C212.49 528.85, 396.36 315.55, 622.32 57.34 M35.93 744.09 C198.47 555.53, 358.51 370.87, 621.79 70.14 M35.93 744.09 C233.92 517.45, 433.61 287.43, 621.79 70.14 M46.56 744.06 C260.44 500.44, 474.14 255.18, 621.93 82.18 M46.56 744.06 C196.68 576.07, 341.2 408.49, 621.93 82.18 M57.19 744.02 C210.28 569.41, 365.76 394.26, 622.06 94.22 M57.19 744.02 C265.62 504.01, 471.64 265.95, 622.06 94.22 M67.82 743.99 C232.44 550.79, 398.35 363.62, 622.19 106.26 M67.82 743.99 C244.61 542.19, 423.45 335.19, 622.19 106.26 M78.45 743.95 C261.14 543.02, 439.44 338.2, 622.32 118.3 M78.45 743.95 C271.84 523.01, 468.39 296.99, 622.32 118.3 M89.08 743.92 C210.54 602.33, 338.3 457.33, 621.8 131.1 M89.08 743.92 C301 503.97, 510.99 261.64, 621.8 131.1 M99.71 743.88 C254.58 566.97, 410.07 385.9, 621.94 143.14 M99.71 743.88 C259.69 557.73, 419.93 375.59, 621.94 143.14 M110.34 743.85 C214.43 620.56, 324.04 494.23, 622.07 155.18 M110.34 743.85 C217.4 624.46, 324.47 501.27, 622.07 155.18 M120.97 743.82 C285.25 554.99, 449.98 369.64, 622.2 167.22 M120.97 743.82 C293.91 541.94, 467.68 341.87, 622.2 167.22 M131.6 743.78 C248.97 611.73, 362.36 479.76, 622.33 179.26 M131.6 743.78 C313.25 538.42, 492.93 331.68, 622.33 179.26 M142.23 743.75 C251.04 619.09, 359.45 494.36, 621.81 192.05 M142.23 743.75 C330.58 528.25, 521.08 309.88, 621.81 192.05 M152.86 743.71 C283.32 591.42, 418.08 436.1, 621.94 204.1 M152.86 743.71 C311.45 563.64, 469.3 382.39, 621.94 204.1 M162.84 744.43 C308.21 580.65, 452.78 414.89, 622.08 216.14 M162.84 744.43 C312.02 570.06, 464.69 395.41, 622.08 216.14 M173.47 744.4 C326.28 566.37, 482.17 384.56, 622.21 228.18 M173.47 744.4 C285.08 609.32, 398.43 477.65, 622.21 228.18 M184.1 744.36 C353.08 555.93, 520.18 360.77, 621.69 240.97 M184.1 744.36 C360.52 544.87, 530.96 348.25, 621.69 240.97 M194.73 744.33 C354.18 553.89, 518.36 368.66, 621.82 253.01 M194.73 744.33 C335.42 589.69, 472.56 431.67, 621.82 253.01 M205.36 744.29 C333.45 597.96, 458.97 453.73, 621.95 265.05 M205.36 744.29 C368.86 553.28, 531.85 365.56, 621.95 265.05 M215.99 744.26 C345.97 591.21, 477.16 439.07, 622.09 277.09 M215.99 744.26 C302.56 647.94, 384.52 551.21, 622.09 277.09 M226.62 744.23 C324.28 632.76, 417.24 524.09, 622.22 289.14 M226.62 744.23 C347.96 606.49, 467.75 469.42, 622.22 289.14 M237.25 744.19 C355.11 612.24, 472.63 474.92, 621.7 301.93 M237.25 744.19 C330.15 637.13, 421.46 533.92, 621.7 301.93 M247.88 744.16 C336.34 643.25, 426.94 542.06, 621.83 313.97 M247.88 744.16 C344.89 629.68, 441.9 517.95, 621.83 313.97 M258.51 744.12 C345.33 640.94, 432.65 542.32, 621.96 326.01 M258.51 744.12 C332.78 655.88, 409.27 567.76, 621.96 326.01 M269.14 744.09 C350.88 653, 431.84 561.32, 622.1 338.05 M269.14 744.09 C404.17 590.1, 535.53 437.54, 622.1 338.05 M279.77 744.05 C356.61 652.6, 436.03 563.89, 622.23 350.09 M279.77 744.05 C416.38 588.05, 550.08 433.7, 622.23 350.09 M290.4 744.02 C363.06 656.17, 437.35 572.65, 621.71 362.89 M290.4 744.02 C397.27 621.91, 502.24 502.36, 621.71 362.89 M301.03 743.98 C413.49 615.17, 525.03 487.7, 621.84 374.93 M301.03 743.98 C402.9 630.13, 503.06 515.21, 621.84 374.93 M311.66 743.95 C406.99 629.51, 508.9 515.11, 621.97 386.97 M311.66 743.95 C411.19 629.52, 509.8 514.56, 621.97 386.97 M322.29 743.92 C396.2 654.78, 474.49 566.03, 622.11 399.01 M322.29 743.92 C430.82 621.22, 538.4 495.18, 622.11 399.01 M332.92 743.88 C417.52 646.25, 506.94 544.16, 622.24 411.05 M332.92 743.88 C445.62 615.87, 557.59 485.45, 622.24 411.05 M343.55 743.85 C403.58 672.95, 467.1 602.22, 621.72 423.85 M343.55 743.85 C398.96 679.49, 455.44 615.39, 621.72 423.85 M354.18 743.81 C414.8 666.83, 480.53 592.79, 621.85 435.89 M354.18 743.81 C434.72 653.39, 514.64 562.77, 621.85 435.89 M364.81 743.78 C430.33 667.1, 499.2 583.58, 621.98 447.93 M364.81 743.78 C458.26 638.44, 549.43 534.41, 621.98 447.93 M375.44 743.74 C446.6 664.89, 516.72 582.28, 622.12 459.97 M375.44 743.74 C466.89 641.94, 556.07 538.17, 622.12 459.97 M386.07 743.71 C433.67 683.29, 486.21 625.37, 622.25 472.01 M386.07 743.71 C441.22 686.35, 493.76 624.86, 622.25 472.01 M396.04 744.43 C458.43 674.4, 517.78 602.51, 621.73 484.81 M396.04 744.43 C464.23 665.97, 530.62 589.47, 621.73 484.81 M406.67 744.39 C460.49 678.83, 514.44 616.13, 621.86 496.85 M406.67 744.39 C464.6 679.2, 519.08 617.93, 621.86 496.85 M417.3 744.36 C485.97 671.1, 551.47 595.68, 621.99 508.89 M417.3 744.36 C491.42 660.52, 565.95 576.29, 621.99 508.89 M427.93 744.32 C466.42 697.5, 504.19 653.83, 622.13 520.93 M427.93 744.32 C503.06 660.74, 575.15 577.22, 622.13 520.93 M438.56 744.29 C483.07 692.9, 527.49 647.06, 622.26 532.97 M438.56 744.29 C509.92 662.9, 579.81 581.4, 622.26 532.97 M449.19 744.26 C485.05 702.5, 519.92 662.08, 621.74 545.77 M449.19 744.26 C514.94 669.74, 576.99 598.5, 621.74 545.77 M459.82 744.22 C513.16 688.44, 561.92 627.38, 621.87 557.81 M459.82 744.22 C521.83 678.46, 581.75 606.95, 621.87 557.81 M470.45 744.19 C506.42 707.19, 537.13 665.96, 622 569.85 M470.45 744.19 C514.71 692.91, 559.61 644.8, 622 569.85 M481.08 744.15 C521.33 689.45, 572.72 643.3, 622.14 581.89 M481.08 744.15 C520.23 698.72, 558.01 657.5, 622.14 581.89 M491.71 744.12 C517.92 715.1, 547 682.93, 622.27 593.93 M491.71 744.12 C521.83 706.56, 558.63 669.17, 622.27 593.93 M502.34 744.08 C540.11 702.29, 580.88 659.78, 621.75 606.73 M502.34 744.08 C527.79 717.54, 550.68 685.36, 621.75 606.73 M512.97 744.05 C546.84 705.64, 574.16 674.4, 621.88 618.77 M512.97 744.05 C539.52 712.63, 568.21 680.16, 621.88 618.77 M523.6 744.01 C546.84 722.63, 565.1 692.7, 622.01 630.81 M523.6 744.01 C551.69 710.33, 579.54 673.35, 622.01 630.81 M534.23 743.98 C566.11 709.66, 600.84 673.97, 622.15 642.85 M534.23 743.98 C564.65 707.59, 595.09 675.03, 622.15 642.85 M544.86 743.95 C569.57 718.56, 597.31 691.68, 622.28 654.89 M544.86 743.95 C575.63 710.18, 604.32 676.3, 622.28 654.89 M555.49 743.91 C577.84 721.23, 601.17 699.79, 621.76 667.69 M555.49 743.91 C570.42 727.42, 588.78 707.67, 621.76 667.69 M566.12 743.88 C583.06 729, 595.09 711.78, 621.89 679.73 M566.12 743.88 C580.71 727.88, 598.13 709.01, 621.89 679.73 M576.75 743.84 C588.77 727.97, 600.06 722.6, 622.02 691.77 M576.75 743.84 C592.2 728.13, 605.93 714.73, 622.02 691.77 M589.35 741.54 C599.75 733.25, 607.13 720.83, 622.16 703.81 M589.35 741.54 C600.1 729.29, 614.66 711.57, 622.16 703.81 M601.29 740 C608.62 727.41, 618.37 722.65, 624.91 712.83 M601.29 740 C606.02 734.84, 611.05 730.41, 624.91 712.83" stroke="#b2f2bb" stroke-width="1" fill="none"></path><path d="M32 0 M32 0 C152.16 0.9, 272.27 -0.03, 588.52 0 M32 0 C180.17 -0.98, 329.36 -1.65, 588.52 0 M588.52 0 C606.97 1, 618.16 11.76, 620.52 32 M588.52 0 C613.65 3.06, 618.51 8.22, 620.52 32 M620.52 32 C625.08 188.8, 623.25 348.03, 620.52 708.64 M620.52 32 C617.43 167.5, 616.91 304.01, 620.52 708.64 M620.52 708.64 C618.87 726.11, 609.31 741.56, 588.52 740.64 M620.52 708.64 C619.01 725.52, 613.06 742.31, 588.52 740.64 M588.52 740.64 C437.18 745.82, 283.13 745.29, 32 740.64 M588.52 740.64 C437.46 738.28, 285.85 738.13, 32 740.64 M32 740.64 C13.12 744.05, -2.78 727.92, 0 708.64 M32 740.64 C14.87 743.73, 2.63 727.26, 0 708.64 M0 708.64 C0.5 506.9, 2.52 307.7, 0 32 M0 708.64 C2.68 449.58, 2.35 190, 0 32 M0 32 C2.46 13.66, 11.17 -3.06, 32 0 M0 32 C-4.59 10.65, 9.02 -3.23, 32 0" stroke="#1e1e1e" stroke-width="2" fill="none"></path></g><g stroke-linecap="round" transform="translate(64.00070286482651 112.7291013978529) rotate(0 252.5 48.5)"><path d="M25.74 -2.41 L487.38 0.19 L501.29 9.8 L501.03 10.29 L508.42 78.48 L504.12 86.43 L493.6 92.47 L477.18 100.61 L18.59 96.58 L11.91 92.8 L0.68 81.74 L-1.64 21.72 L1.11 14.29 L2.67 7.63 L9.7 2.1 L20.5 -1.96" stroke="none" stroke-width="0" fill="#b2f2bb"></path><path d="M24.25 0 M24.25 0 C135.98 -0.21, 251.59 1.61, 480.75 0 M24.25 0 C151.83 -0.19, 278.02 -0.51, 480.75 0 M480.75 0 C498.55 0.63, 503.55 10.77, 505 24.25 M480.75 0 C494.48 -0.89, 504.72 8.83, 505 24.25 M505 24.25 C504.85 35.42, 507.14 42.05, 505 72.75 M505 24.25 C504.59 35.2, 505.25 44.42, 505 72.75 M505 72.75 C507.29 86.43, 498.42 96.58, 480.75 97 M505 72.75 C503.54 93.01, 497.66 93.72, 480.75 97 M480.75 97 C380.22 98.58, 278.39 99.97, 24.25 97 M480.75 97 C377.07 101.11, 275.01 99.71, 24.25 97 M24.25 97 C9.92 94.62, 2.62 87.52, 0 72.75 M24.25 97 C4.48 101.23, 2.93 90.22, 0 72.75 M0 72.75 C4.39 56.75, 3.5 38.55, 0 24.25 M0 72.75 C-0.39 55.9, 0.33 42.62, 0 24.25 M0 24.25 C-0.16 9.69, 5.16 -2.33, 24.25 0 M0 24.25 C3.82 10.99, 4.18 -4.27, 24.25 0" stroke="#000000" stroke-width="4" fill="none"></path></g><g transform="translate(73.85070896834213 139.629101397853) rotate(0 242.64999389648438 21.59999999999991)"><text x="242.64999389648438" y="0" font-family="Cascadia, Segoe UI Emoji" font-size="36px" fill="#1e1e1e" text-anchor="middle" style="white-space: pre;" direction="ltr" dominant-baseline="text-before-edge">\\BARCELONA.LAN\Empresa</text></g><g stroke-linecap="round" transform="translate(257.01252841444807 253.55457156826105) rotate(0 114.49999999999989 55)"><path d="M27.13 2.25 L202.12 -3.82 L214.85 1.36 L226.55 11.96 L225 18.4 L232.68 79.99 L224.31 96.94 L220.4 103.28 L197.76 111 L30.42 109.02 L13.21 106.54 L3.34 95.78 L0.39 92.59 L-2.91 22.77 L6.15 11.82 L13.46 1.13 L25.85 -2.3" stroke="none" stroke-width="0" fill="#a5d8ff"></path><path d="M27.5 0 M27.5 0 C64.82 2.82, 107.19 -4.14, 201.5 0 M27.5 0 C84.98 1.76, 144.8 -1.95, 201.5 0 M201.5 0 C216.34 3.72, 231.22 9.1, 229 27.5 M201.5 0 C216.57 -1.16, 228.15 10.19, 229 27.5 M229 27.5 C230.16 41.27, 231.37 59.79, 229 82.5 M229 27.5 C226.51 45.56, 227.89 67.57, 229 82.5 M229 82.5 C227.25 101.54, 221.46 111.86, 201.5 110 M229 82.5 C231.48 102.83, 222.82 107.28, 201.5 110 M201.5 110 C146.54 108.24, 87.46 106.89, 27.5 110 M201.5 110 C150.37 109.84, 99.41 110.08, 27.5 110 M27.5 110 C12.29 113.19, -2.77 99.8, 0 82.5 M27.5 110 C11.1 109.38, 3.82 96.24, 0 82.5 M0 82.5 C1.21 70.39, 1.9 57.35, 0 27.5 M0 82.5 C0.19 68.49, 1.87 56.14, 0 27.5 M0 27.5 C-2.83 6.36, 9 -2.33, 27.5 0 M0 27.5 C-1.07 8.24, 5.76 -0.1, 27.5 0" stroke="#1e1e1e" stroke-width="2" fill="none"></path></g><g transform="translate(264.912529940327 291.75457156826087) rotate(0 106.59999847412098 16.799999999999955)"><text x="106.5999984741211" y="0" font-family="Cascadia, Segoe UI Emoji" font-size="28px" fill="#1e1e1e" text-anchor="middle" style="white-space: pre;" direction="ltr" dominant-baseline="text-before-edge">Documentación</text></g><g stroke-linecap="round"><g transform="translate(195.92520753651252 212.47194590144272) rotate(0 0.6375879055904079 259.35698835866765)"><path d="M1.7 -0.72 C2.18 86.38, 2.15 435.21, 1.97 522.3 M-0.82 -3.58 C-0.59 82.77, 0.11 431.59, -0.03 518.38" stroke="#1e1e1e" stroke-width="2" fill="none"></path></g></g><mask></mask><g stroke-linecap="round" transform="translate(259.4533665131912 421.7621002018932) rotate(0 105 30)"><path d="M16.3 -2.98 L199.01 -1.88 L206.84 3.29 L211.44 10.39 L206.87 51.13 L207.15 58.39 L197.98 56.64 L6.26 55.23 L0.55 53.93 L-2.67 48.04 L2.8 12.46 L6.21 7.29 L13.21 -3.81" stroke="none" stroke-width="0" fill="#a5d8ff"></path><path d="M15 0 M15 0 C57.02 2.37, 108.69 7.3, 195 0 M15 0 C59.16 -1.69, 102.74 1.98, 195 0 M195 0 C206.95 3.7, 210.79 5.14, 210 15 M195 0 C209.32 -2.72, 209.51 6.97, 210 15 M210 15 C210.75 19.97, 210.62 26.6, 210 45 M210 15 C209.22 25.05, 210.46 36.84, 210 45 M210 45 C212.85 51.79, 207.71 59.63, 195 60 M210 45 C205.95 52.66, 201.49 56.75, 195 60 M195 60 C155.45 62.97, 120.28 63.62, 15 60 M195 60 C144.66 57.59, 93.09 58.76, 15 60 M15 60 C2.15 59.29, 0.02 53.43, 0 45 M15 60 C8.4 57.49, -0.52 57.14, 0 45 M0 45 C1.15 35.79, -0.41 23.62, 0 15 M0 45 C1.84 39.15, -0.7 34.51, 0 15 M0 15 C1.98 2.53, 7.99 -1.35, 15 0 M0 15 C-1.36 3.58, 5.69 0.72, 15 0" stroke="#1e1e1e" stroke-width="2" fill="none"></path></g><g transform="translate(317.5867016267166 439.7621002018932) rotate(0 46.86666488647461 12)"><text x="46.86666488647461" y="0" font-family="Cascadia, Segoe UI Emoji" font-size="20px" fill="#1e1e1e" text-anchor="middle" style="white-space: pre;" direction="ltr" dominant-baseline="text-before-edge">........</text></g><g stroke-linecap="round"><g transform="translate(198.98570477991188 303.5217388925739) rotate(0 28.63065807531609 1.2978851062659942)"><path d="M-2.47 -1.42 C6.3 -1.45, 45.07 -1.27, 54.48 -0.45 M1.39 3.98 C10.86 4.27, 50.05 2.93, 59.73 2.11" stroke="#1e1e1e" stroke-width="2" fill="none"></path></g></g><mask></mask><g stroke-linecap="round"><g transform="translate(196.69033184736236 455.7814767516934) rotate(0 30.149349407950012 -1.787669926845183)"><path d="M-2.6 -0.25 C7.86 -0.79, 52.33 -2.72, 62.89 -3.65 M1.19 -2.85 C11.34 -2.85, 51.64 0.23, 61.16 0.07" stroke="#1e1e1e" stroke-width="2" fill="none"></path></g></g><mask></mask><g transform="translate(105.47748369288297 41.84922458192705) rotate(0 196.8000030517577 16.799999999999955)"><text x="196.8000030517578" y="0" font-family="Cascadia, Segoe UI Emoji" font-size="28px" fill="#1e1e1e" text-anchor="middle" style="white-space: pre;" direction="ltr" dominant-baseline="text-before-edge">NAMESERVER BARCELONA.LAN</text></g><g stroke-linecap="round"><g transform="translate(487.1556767564416 355.4829387759687) rotate(0 127.30025708419316 89.43830586228933)"><path d="M2.26 0.94 C44.24 30.23, 210.35 147.91, 252.34 177.94" stroke="#f08c00" stroke-width="4.5" fill="none" stroke-dasharray="8 12"></path></g><g transform="translate(487.1556767564416 355.4829387759687) rotate(0 127.30025708419316 89.43830586228933)"><path d="M32.55 8.28 C21.43 8.93, 16.8 5.12, 5.27 3.94" stroke="#f08c00" stroke-width="4.5" fill="none"></path></g><g transform="translate(487.1556767564416 355.4829387759687) rotate(0 127.30025708419316 89.43830586228933)"><path d="M20.7 25.04 C13.06 20.21, 12.18 11.11, 5.27 3.94" stroke="#f08c00" stroke-width="4.5" fill="none"></path></g><g transform="translate(487.1556767564416 355.4829387759687) rotate(0 127.30025708419316 89.43830586228933)"><path d="M252.91 166.69 C255.16 166.61, 257.65 167.27, 259.41 168.78 C261.17 170.28, 263.35 172.99, 263.49 175.73 C263.63 178.46, 261.75 183.44, 260.25 185.17 C258.76 186.9, 256.37 186.01, 254.5 186.11 C252.63 186.2, 250.76 186.13, 249.02 185.73 C247.27 185.34, 244.79 185.77, 244.01 183.74 C243.23 181.72, 243.82 175.74, 244.31 173.58 C244.81 171.41, 244.06 170.58, 246.96 170.75 C249.86 170.91, 259.35 172.36, 261.72 174.57 C264.09 176.78, 261.3 184.34, 261.18 184" stroke="none" stroke-width="0" fill="#f08c00"></path></g></g><mask></mask><g transform="translate(811.666961520717 421.1724717406123) rotate(0 131.1999969482422 16.799999999999955)"><text x="131.1999969482422" y="0" font-family="Cascadia, Segoe UI Emoji" font-size="28px" fill="#1e1e1e" text-anchor="middle" style="white-space: pre;" direction="ltr" dominant-baseline="text-before-edge">EQUIPO SRV-DATOS</text></g><g stroke-linecap="round"><g transform="translate(575.547931130563 154.41315893196224) rotate(0 96.34096658221483 -15.480259042810076)"><path d="M2.69 1.14 C34.2 -4.28, 158.57 -26.86, 189.99 -32.1" stroke="#1971c2" stroke-width="4.5" fill="none" stroke-dasharray="8 12"></path></g><g transform="translate(575.547931130563 154.41315893196224) rotate(0 96.34096658221483 -15.480259042810076)"><path d="M30.27 -17.47 C20.8 -10.16, 14.72 -4.22, 2.17 3.94" stroke="#1971c2" stroke-width="4.5" fill="none"></path></g><g transform="translate(575.547931130563 154.41315893196224) rotate(0 96.34096658221483 -15.480259042810076)"><path d="M33.87 2.73 C23.14 3.35, 15.85 2.54, 2.17 3.94" stroke="#1971c2" stroke-width="4.5" fill="none"></path></g><g transform="translate(575.547931130563 154.41315893196224) rotate(0 96.34096658221483 -15.480259042810076)"><path d="M181.9 -37.42 C183.46 -39.17, 187.86 -42.01, 189.88 -42.32 C191.9 -42.63, 192.77 -40.31, 194.02 -39.3 C195.27 -38.28, 196.66 -38.25, 197.37 -36.24 C198.07 -34.23, 198.38 -29.47, 198.27 -27.24 C198.15 -25, 198.47 -23.38, 196.68 -22.85 C194.89 -22.31, 190.12 -23.76, 187.53 -24.02 C184.94 -24.28, 182.54 -22.82, 181.14 -24.38 C179.73 -25.95, 178.15 -30.91, 179.11 -33.39 C180.06 -35.87, 184.66 -37.65, 186.86 -39.29 C189.06 -40.93, 191.92 -42.75, 192.3 -43.23" stroke="none" stroke-width="0" fill="#1971c2"></path></g></g><mask></mask><g transform="translate(823.0366775475741 34.278266031947624) rotate(0 147.60000610351562 16.799999999999955)"><text x="147.60000610351562" y="0" font-family="Cascadia, Segoe UI Emoji" font-size="28px" fill="#1e1e1e" text-anchor="middle" style="white-space: pre;" direction="ltr" dominant-baseline="text-before-edge">EQUIPO SRV-EMPRESA</text></g><g stroke-linecap="round" transform="translate(742.5531393589517 527.472415007172) rotate(0 200.5 27)"><path d="M17.2 1.07 L390.3 3.28 L397.05 -1.59 L399.85 7.81 L400.65 46.13 L397.48 52.85 L388.86 56.46 L6.83 57.11 L7.78 55.52 L1.44 47.5 L2.6 17.14 L1.16 -0.08 L17.07 0.77" stroke="none" stroke-width="0" fill="#ffc9c9"></path><path d="M13.5 0 M13.5 0 C91.04 -0.42, 169.47 -4.09, 387.5 0 M13.5 0 C100.4 2.19, 187.55 2.09, 387.5 0 M387.5 0 C399.13 1.97, 401.26 5.75, 401 13.5 M387.5 0 C397.38 -1.35, 402 4.77, 401 13.5 M401 13.5 C402.9 19.29, 399.86 35.39, 401 40.5 M401 13.5 C400.07 25.08, 399.07 33.05, 401 40.5 M401 40.5 C402.46 52.51, 398.85 56.43, 387.5 54 M401 40.5 C405.5 52.5, 399.86 55.03, 387.5 54 M387.5 54 C278.9 51.98, 171.26 53.31, 13.5 54 M387.5 54 C237.88 50.47, 90.82 49.91, 13.5 54 M13.5 54 C6.94 54.7, 0.6 47.68, 0 40.5 M13.5 54 C1.71 55.32, 3.39 47.23, 0 40.5 M0 40.5 C-1.61 28.55, -2.58 19.16, 0 13.5 M0 40.5 C0.13 32.27, 1.6 24.31, 0 13.5 M0 13.5 C-1.3 1.89, 1.75 -1.41, 13.5 0 M0 13.5 C-3.03 -0.05, 7.01 0.56, 13.5 0" stroke="#1e1e1e" stroke-width="2" fill="none"></path></g><g transform="translate(755.5864798130533 542.472415007172) rotate(0 187.46665954589844 12)"><text x="187.46665954589844" y="0" font-family="Cascadia, Segoe UI Emoji" font-size="20px" fill="#1e1e1e" text-anchor="middle" style="white-space: pre;" direction="ltr" dominant-baseline="text-before-edge">\\SRV-DATOS\DocumentacionEmpresa</text></g><g stroke-linecap="round" transform="translate(779.7788178283154 99.73875652370134) rotate(0 200.5 27)"><path d="M15.3 -3.09 L389.65 1.14 L396.96 5.27 L403.49 8.95 L404.75 43.37 L398.07 46.85 L387.07 52.9 L6.59 56.99 L5.6 53.4 L0.13 45.73 L1.07 16.13 L0.12 4.39 L16.81 2" stroke="none" stroke-width="0" fill="#a5d8ff"></path><path d="M13.5 0 M13.5 0 C149.55 1.42, 285.51 3, 387.5 0 M13.5 0 C126.32 -3.2, 240.25 -2.02, 387.5 0 M387.5 0 C397.37 0.08, 404.28 4.27, 401 13.5 M387.5 0 C397.41 -1.93, 397.52 5.18, 401 13.5 M401 13.5 C400.86 21.61, 400.62 26.4, 401 40.5 M401 13.5 C402.18 24.31, 400.92 32.58, 401 40.5 M401 40.5 C401.28 50.18, 392.95 53.77, 387.5 54 M401 40.5 C401.93 49.84, 396.73 58.2, 387.5 54 M387.5 54 C289.25 48.96, 186.79 49.32, 13.5 54 M387.5 54 C294.49 56.2, 201.34 57.07, 13.5 54 M13.5 54 C2.2 57.15, -3.59 47.43, 0 40.5 M13.5 54 C5.04 57.71, 0.9 49.8, 0 40.5 M0 40.5 C-3.03 30.01, 0.95 15.39, 0 13.5 M0 40.5 C0.25 31.33, 0.68 25.65, 0 13.5 M0 13.5 C-1.14 6.14, 3.73 2.89, 13.5 0 M0 13.5 C-1.75 2.22, 0.25 3.81, 13.5 0" stroke="#1e1e1e" stroke-width="2" fill="none"></path></g><g transform="translate(857.2538163024365 114.73875652370134) rotate(0 123.0250015258789 12)"><text x="123.0250015258789" y="0" font-family="Cascadia, Segoe UI Emoji" font-size="20px" fill="#1e1e1e" text-anchor="middle" style="white-space: pre;" direction="ltr" dominant-baseline="text-before-edge">\\SRV-EMPRESA\Empresa</text></g><g stroke-linecap="round" transform="translate(262.18436276047646 505.0957534940517) rotate(0 105.00000000000011 30)"><path d="M12.12 -1.24 L197.78 3.67 L203.17 4.9 L205.99 14.76 L205.32 48.42 L203.23 55.24 L196.43 61.18 L5.86 62.02 L1.11 53.03 L-1.3 49.96 L3.85 9.19 L3.85 5.29 L17.37 1.37" stroke="none" stroke-width="0" fill="#a5d8ff"></path><path d="M15 0 M15 0 C60.14 -4.5, 114.5 -2.98, 195 0 M15 0 C83.87 3.15, 154.78 1.71, 195 0 M195 0 C206.76 1.83, 207.95 4.86, 210 15 M195 0 C209.05 -1.67, 211.41 2.58, 210 15 M210 15 C211.34 23.17, 213.54 32.01, 210 45 M210 15 C210.24 22.75, 208.33 27.85, 210 45 M210 45 C213.44 55.26, 202.11 57.18, 195 60 M210 45 C206.88 54.27, 204.76 61.9, 195 60 M195 60 C129.28 61.79, 60.31 65.27, 15 60 M195 60 C137.2 55.21, 80.86 57.81, 15 60 M15 60 C1.47 63.14, 1.39 56.58, 0 45 M15 60 C6.52 56.76, 2.15 58.26, 0 45 M0 45 C4.17 36.9, 1.21 28.66, 0 15 M0 45 C1.06 35.93, -0.68 30.25, 0 15 M0 15 C0.57 4.72, 1.65 -2.94, 15 0 M0 15 C4.41 7.86, 7.62 -2.08, 15 0" stroke="#1e1e1e" stroke-width="2" fill="none"></path></g><g transform="translate(320.31769787400185 523.0957534940517) rotate(0 46.86666488647461 12)"><text x="46.86666488647461" y="0" font-family="Cascadia, Segoe UI Emoji" font-size="20px" fill="#1e1e1e" text-anchor="middle" style="white-space: pre;" direction="ltr" dominant-baseline="text-before-edge">........</text></g><g stroke-linecap="round"><g transform="translate(199.4213280946476 539.1151300438514) rotate(0 30.844889554777637 -1.8684700854091716)"><path d="M-2.64 2.29 C7.61 1.15, 48.69 -4.7, 59.35 -6.03 M1.12 1.06 C12.39 0.14, 54.66 -2.82, 64.33 -3.59" stroke="#1e1e1e" stroke-width="2" fill="none"></path></g></g><mask></mask><g stroke-linecap="round" transform="translate(260.28502789084723 587.7168203229362) rotate(0 105 30)"><path d="M13.75 0.02 L199.08 1.59 L202.69 2.59 L212.24 7.78 L206.02 51.47 L206.56 56.95 L192.29 58.82 L7.09 56.29 L4.79 58.8 L3.35 51 L2.7 8.94 L2.09 5.6 L17.42 -2.74" stroke="none" stroke-width="0" fill="#a5d8ff"></path><path d="M15 0 M15 0 C78.91 0.09, 136.64 2.15, 195 0 M15 0 C82.99 -2.51, 152.43 0.2, 195 0 M195 0 C201.73 -1.76, 211.14 2.15, 210 15 M195 0 C207.52 3.02, 211.84 2.8, 210 15 M210 15 C206.51 23.79, 212.77 31.26, 210 45 M210 15 C210.22 25.73, 208.92 32.62, 210 45 M210 45 C211.51 53.18, 205.43 62.5, 195 60 M210 45 C208.21 58.23, 205.1 59.52, 195 60 M195 60 C149.63 57.14, 109.67 57.06, 15 60 M195 60 C151.57 58, 106.32 59.96, 15 60 M15 60 C3.4 57.81, -3.61 57.78, 0 45 M15 60 C7.92 61.34, -3.54 57.07, 0 45 M0 45 C-1.07 38.37, 2.47 23.89, 0 15 M0 45 C-1.67 34.68, 1.12 27, 0 15 M0 15 C0.4 3.25, 4.88 -1.9, 15 0 M0 15 C3.95 1.08, 8.96 2.43, 15 0" stroke="#1e1e1e" stroke-width="2" fill="none"></path></g><g transform="translate(318.4183630043726 605.7168203229362) rotate(0 46.86666488647461 12)"><text x="46.86666488647461" y="0" font-family="Cascadia, Segoe UI Emoji" font-size="20px" fill="#1e1e1e" text-anchor="middle" style="white-space: pre;" direction="ltr" dominant-baseline="text-before-edge">........</text></g><g stroke-linecap="round"><g transform="translate(197.52199322501838 621.7361968727369) rotate(0 32.158721578219456 -0.862259414029495)"><path d="M1.73 -2.6 C12.12 -3.11, 49.52 -3.58, 59.85 -3.89 M-0.77 2.17 C10.71 2.2, 54.5 0.35, 65.09 -0.3" stroke="#1e1e1e" stroke-width="2" fill="none"></path></g></g><mask></mask></svg>